<?xml version="1.0" standalone="no"?>
<!DOCTYPE svg PUBLIC "-//W3C//DTD SVG 20010904//EN"
 "http://www.w3.org/TR/2001/REC-SVG-20010904/DTD/svg10.dtd">
<svg version="1.0" xmlns="http://www.w3.org/2000/svg"
 width="512.000000pt" height="512.000000pt" viewBox="0 0 512.000000 512.000000"
 preserveAspectRatio="xMidYMid meet">
<metadata>
Created by potrace 1.11, written by Peter Selinger 2001-2013
</metadata>
<g transform="translate(0.000000,512.000000) scale(0.100000,-0.100000)"
fill="#000000" stroke="none">
<path d="M650 4321 c-319 -68 -574 -330 -635 -652 -14 -76 -15 -206 -13 -1145
3 -978 5 -1064 21 -1118 46 -155 100 -254 196 -358 112 -121 238 -197 401
-240 l85 -23 1865 0 1865 0 78 23 c283 82 488 284 578 572 l24 75 0 1110 0
1110 -33 95 c-91 261 -271 441 -532 532 l-95 33 -1860 2 c-1761 2 -1865 1
-1945 -16z m1745 -1074 c851 -559 1035 -681 1035 -686 0 -3 -121 -85 -268
-183 -277 -183 -1138 -748 -1159 -762 -10 -6 -13 186 -13 944 0 758 3 950 13
944 6 -4 183 -120 392 -257z"/>
</g>
</svg>
