<svg height="512pt" viewBox="0 -78 512 512" width="512pt" xmlns="http://www.w3.org/2000/svg"><path d="m0 82v191.894531c0 45.289063 36.714844 82 82 82h348c45.285156 0 82-36.710937 82-82v-191.894531c0-45.285156-36.714844-82-82-82h-348c-45.285156 0-82 36.710938-82 82zm0 0" fill="#ff0059"/><path d="m430 0h-174v355.894531h174c45.285156 0 82-36.710937 82-82v-191.894531c0-45.289062-36.714844-82-82-82zm0 0" fill="#d20041"/><path d="m199.304688 273.136719v-190.378907l144.335937 95.191407zm0 0" fill="#deecf1"/><path d="m256 120.148438v115.597656l87.640625-57.796875zm0 0" fill="#cfdde2"/></svg>